<mxfile host="app.diagrams.net" modified="2022-02-28T22:05:14.499Z" agent="5.0 (Windows NT 10.0; Win64; x64) AppleWebKit/537.36 (KHTML, like Gecko) Chrome/98.0.4758.102 Safari/537.36" etag="v6dhk_V1OIObel1W6Umg" version="16.6.4" type="github">
  <diagram id="Y2M6Sqitx8QhIe9AYhU4" name="Page-1">
    <mxGraphModel dx="782" dy="436" grid="1" gridSize="10" guides="1" tooltips="1" connect="1" arrows="1" fold="1" page="1" pageScale="1" pageWidth="850" pageHeight="1100" math="0" shadow="0">
      <root>
        <mxCell id="0" />
        <mxCell id="1" parent="0" />
        <mxCell id="nLEEnEXIkgsAmhvjqS4x-1" value="" style="aspect=fixed;perimeter=ellipsePerimeter;html=1;align=center;shadow=0;dashed=0;spacingTop=3;image;image=img/lib/active_directory/home.svg;" vertex="1" parent="1">
          <mxGeometry x="90" y="70" width="80" height="77.6" as="geometry" />
        </mxCell>
        <mxCell id="nLEEnEXIkgsAmhvjqS4x-5" value="&lt;span&gt;ATTRIBUTES&lt;/span&gt;&lt;br&gt;&lt;span&gt;id&lt;/span&gt;&lt;br&gt;&lt;span&gt;name&lt;/span&gt;&lt;br&gt;&lt;span&gt;owner&lt;/span&gt;&lt;br&gt;&lt;span&gt;address&lt;/span&gt;&lt;br&gt;&lt;span&gt;phone&lt;/span&gt;" style="text;html=1;strokeColor=none;fillColor=none;align=center;verticalAlign=middle;whiteSpace=wrap;rounded=0;" vertex="1" parent="1">
          <mxGeometry x="50" y="170" width="730" height="30" as="geometry" />
        </mxCell>
        <mxCell id="nLEEnEXIkgsAmhvjqS4x-8" value="METHODS&lt;br&gt;open&lt;br&gt;close&lt;br&gt;stock&lt;br&gt;clearance sale&lt;br&gt;discount" style="text;html=1;strokeColor=none;fillColor=none;align=center;verticalAlign=middle;whiteSpace=wrap;rounded=0;" vertex="1" parent="1">
          <mxGeometry x="40" y="300" width="730" height="30" as="geometry" />
        </mxCell>
      </root>
    </mxGraphModel>
  </diagram>
</mxfile>
